<svg xmlns="http://www.w3.org/2000/svg" xmlns:xlink="http://www.w3.org/1999/xlink" viewBox="0 0 1920.91 1081.09"><defs><style>.cls-1{fill:#000333;stroke:#000;stroke-miterlimit:10;}.cls-2{fill:url(#Gradient_bez_nazwy_4);}.cls-3{fill:url(#Gradient_bez_nazwy_2);}</style><linearGradient id="Gradient_bez_nazwy_4" x1="205.75" y1="985.77" x2="175.31" y2="592.02" gradientUnits="userSpaceOnUse"><stop offset="0" stop-color="#fff"/><stop offset="1" stop-color="#000333"/></linearGradient><linearGradient id="Gradient_bez_nazwy_2" x1="1806.63" y1="979.18" x2="1781.97" y2="576.44" gradientUnits="userSpaceOnUse"><stop offset="0" stop-color="#fff"/><stop offset="0.43" stop-color="#9293a8"/><stop offset="1" stop-color="#000333"/></linearGradient></defs><title>bg-big</title><g id="Warstwa_2" data-name="Warstwa 2"><g id="Warstwa_1-2" data-name="Warstwa 1"><path class="cls-1" d="M1920.41,154.35V.5h-960S962.69,189,1580.65,189C1580.65,189,1920.41,189.69,1920.41,154.35Z"/><path class="cls-2" d="M0,427c69.29,0,133.31,23.92,168,62.74L375.74,722.62c34.64,38.83,34.64,86.67,0,125.49L168,1081l-166.54.1Z"/><path class="cls-3" d="M1651.63,555.47c0,26.83,11.18,52.11,30.9,74.3-19.72,22.18-30.9,47.46-30.9,74.29,0,28.79,12.86,55.8,35.34,79.12-23.23,23.59-36.56,51.05-36.56,80.35,0,88.07,120.26,159.47,268.61,159.47V863.52h1.22V396C1771.89,396,1651.63,467.4,1651.63,555.47Z"/></g></g></svg>