<svg xmlns="http://www.w3.org/2000/svg" xmlns:xlink="http://www.w3.org/1999/xlink" viewBox="0 0 1127 2437.91"><defs><style>.cls-1{fill:#000333;}.cls-1,.cls-3,.cls-4{stroke:#000;stroke-miterlimit:10;}.cls-2{fill:url(#Gradient_bez_nazwy_4);}.cls-3{fill:url(#Gradient_bez_nazwy_4-2);}.cls-4{fill:url(#Gradient_bez_nazwy_4-3);}</style><linearGradient id="Gradient_bez_nazwy_4" x1="181.01" y1="2312.18" x2="140.47" y2="1787.86" gradientUnits="userSpaceOnUse"><stop offset="0" stop-color="#fff"/><stop offset="1" stop-color="#000333"/></linearGradient><linearGradient id="Gradient_bez_nazwy_4-2" x1="239.73" y1="1181.63" x2="112.7" y2="238.38" xlink:href="#Gradient_bez_nazwy_4"/><linearGradient id="Gradient_bez_nazwy_4-3" x1="1056.41" y1="2113.37" x2="1023.98" y2="1510.67" xlink:href="#Gradient_bez_nazwy_4"/></defs><title>Warstwa 1</title><g id="Warstwa_2" data-name="Warstwa 2"><g id="Warstwa_1-2" data-name="Warstwa 1"><path class="cls-1" d="M1126.5,206.18V.91H773s.84,251.5,228.39,251.5C1001.39,252.41,1126.5,253.34,1126.5,206.18Z"/><path class="cls-2" d="M.28,1560.91A168.26,168.26,0,0,1,146,1645l180.27,312.25a168.23,168.23,0,0,1,0,168.25L146,2437.79l-144.49.12Z"/><path class="cls-3" d="M1.4,457.91s142,76.5,211,0,84.3-98.5,0-192S60,154.91,60,96.91.5.91.5.91Z"/><path class="cls-4" d="M906.5,1256.91a219,219,0,0,0,25.31,102.5,220.22,220.22,0,0,0,3.64,211.65,219,219,0,0,0-30,110.85c0,121.51,98.5,220,220,220v-220h1v-645C1005,1036.91,906.5,1135.41,906.5,1256.91Z"/></g></g></svg>